<svg xmlns="http://www.w3.org/2000/svg" xmlns:xlink="http://www.w3.org/1999/xlink" width="500" zoomAndPan="magnify" viewBox="0 0 375 374.999991" height="500" preserveAspectRatio="xMidYMid meet" version="1.0"><defs><g/><clipPath id="6ebb01593e"><path d="M 23.011719 19.566406 L 352.261719 19.566406 L 352.261719 222.066406 L 23.011719 222.066406 Z M 23.011719 19.566406 " clip-rule="nonzero"/></clipPath></defs><g fill="#333333" fill-opacity="1"><g transform="translate(43.27603, 282.333484)"><g><path d="M 28.664062 -16.160156 C 28.664062 -18.492188 28.1875 -20.628906 27.332031 -22.625 C 26.476562 -24.621094 25.289062 -26.332031 23.816406 -27.761719 C 22.292969 -29.1875 20.535156 -30.277344 18.539062 -31.085938 C 16.496094 -31.894531 14.308594 -32.324219 12.027344 -32.324219 L 3.566406 -32.324219 L 3.566406 0 L 12.027344 0 C 14.308594 0 16.496094 -0.378906 18.539062 -1.1875 C 20.535156 -1.996094 22.292969 -3.136719 23.816406 -4.5625 C 25.289062 -5.988281 26.476562 -7.652344 27.332031 -9.648438 C 28.1875 -11.644531 28.664062 -13.785156 28.664062 -16.160156 Z M 25.429688 -16.160156 C 25.429688 -12.453125 24.101562 -9.363281 21.53125 -6.941406 C 18.964844 -4.515625 15.828125 -3.328125 12.121094 -3.328125 L 6.890625 -3.328125 L 6.890625 -28.996094 L 12.121094 -28.996094 C 15.828125 -28.996094 18.964844 -27.761719 21.53125 -25.382812 C 24.101562 -22.910156 25.429688 -19.820312 25.429688 -16.160156 Z M 25.429688 -16.160156 "/></g></g></g><g fill="#333333" fill-opacity="1"><g transform="translate(83.583897, 282.333484)"><g><path d="M 32.039062 -16.257812 C 32.039062 -12.550781 30.707031 -9.410156 28.140625 -6.84375 C 25.527344 -4.230469 22.386719 -2.945312 18.726562 -2.945312 C 15.066406 -2.945312 11.929688 -4.230469 9.363281 -6.84375 C 6.75 -9.410156 5.464844 -12.550781 5.464844 -16.257812 C 5.464844 -19.871094 6.75 -23.007812 9.363281 -25.621094 C 11.929688 -28.1875 15.066406 -29.519531 18.726562 -29.519531 C 22.386719 -29.519531 25.527344 -28.1875 28.140625 -25.621094 C 30.707031 -23.007812 32.039062 -19.871094 32.039062 -16.257812 Z M 35.367188 -16.257812 C 35.367188 -18.539062 34.890625 -20.675781 34.035156 -22.722656 C 33.179688 -24.71875 31.992188 -26.476562 30.46875 -27.996094 C 28.949219 -29.472656 27.191406 -30.660156 25.191406 -31.515625 C 23.148438 -32.371094 21.011719 -32.847656 18.726562 -32.847656 C 16.445312 -32.847656 14.261719 -32.371094 12.265625 -31.515625 C 10.265625 -30.660156 8.507812 -29.472656 6.988281 -27.996094 C 5.464844 -26.476562 4.277344 -24.71875 3.421875 -22.722656 C 2.566406 -20.675781 2.140625 -18.539062 2.140625 -16.257812 C 2.140625 -13.976562 2.566406 -11.789062 3.421875 -9.792969 C 4.277344 -7.75 5.464844 -5.988281 6.988281 -4.46875 C 8.507812 -2.945312 10.265625 -1.757812 12.265625 -0.902344 C 14.261719 -0.046875 16.445312 0.378906 18.726562 0.378906 C 21.011719 0.378906 23.148438 -0.046875 25.191406 -0.902344 C 27.191406 -1.757812 28.949219 -2.945312 30.46875 -4.46875 C 31.992188 -5.988281 33.179688 -7.75 34.035156 -9.792969 C 34.890625 -11.789062 35.367188 -13.976562 35.367188 -16.257812 Z M 35.367188 -16.257812 "/></g></g></g><g fill="#333333" fill-opacity="1"><g transform="translate(130.593569, 282.333484)"><g><path d="M 14.496094 -7.984375 L 14.496094 -32.324219 L 11.171875 -32.324219 L 11.171875 -7.984375 C 11.171875 -5.941406 10.363281 -4.515625 8.839844 -3.660156 C 7.558594 -2.898438 5.988281 -2.660156 4.136719 -2.898438 C 2.425781 -3.089844 1.09375 -3.566406 0.238281 -4.324219 L 0.238281 -0.664062 C 0.523438 -0.378906 1.09375 -0.144531 1.949219 0.09375 C 2.804688 0.332031 3.753906 0.476562 4.800781 0.476562 C 7.367188 0.570312 9.507812 0.046875 11.21875 -1.140625 C 13.40625 -2.566406 14.496094 -4.847656 14.496094 -7.984375 Z M 14.496094 -7.984375 "/></g></g></g><g fill="#333333" fill-opacity="1"><g transform="translate(157.450286, 282.333484)"><g><path d="M 22.769531 0 L 22.769531 -3.089844 L 6.890625 -3.089844 L 6.890625 -14.59375 L 22.292969 -14.59375 L 22.292969 -17.730469 L 6.890625 -17.730469 L 6.890625 -29.234375 L 22.769531 -29.234375 L 22.769531 -32.324219 L 3.566406 -32.324219 L 3.566406 0 Z M 22.769531 0 "/></g></g></g><g fill="#333333" fill-opacity="1"><g transform="translate(193.290267, 282.333484)"><g><path d="M 24.671875 -8.984375 C 24.671875 -11.265625 24.101562 -13.214844 23.007812 -14.734375 C 21.867188 -16.257812 20.34375 -17.300781 18.492188 -17.824219 C 19.585938 -18.300781 20.535156 -19.15625 21.246094 -20.441406 C 21.582031 -21.011719 21.816406 -21.582031 22.007812 -22.199219 C 22.199219 -22.816406 22.292969 -23.671875 22.292969 -24.765625 C 22.292969 -25.8125 22.007812 -26.902344 21.53125 -27.949219 C 20.105469 -30.847656 17.015625 -32.324219 12.3125 -32.324219 L 3.566406 -32.324219 L 3.566406 0 L 13.453125 0 C 16.730469 0 19.347656 -0.714844 21.34375 -2.234375 C 22.339844 -2.996094 23.148438 -3.992188 23.765625 -5.230469 C 24.335938 -6.417969 24.671875 -7.652344 24.671875 -8.984375 Z M 18.964844 -24.242188 C 18.964844 -22.484375 18.441406 -21.199219 17.398438 -20.34375 C 16.351562 -19.488281 14.972656 -19.0625 13.261719 -19.0625 L 6.890625 -19.0625 L 6.890625 -29.136719 L 12.3125 -29.136719 C 16.730469 -29.136719 18.964844 -27.476562 18.964844 -24.242188 Z M 21.34375 -9.648438 C 21.34375 -7.699219 20.675781 -6.132812 19.347656 -4.945312 C 18.0625 -3.753906 16.398438 -3.183594 14.402344 -3.183594 L 6.890625 -3.183594 L 6.890625 -15.734375 L 14.925781 -15.734375 C 16.589844 -15.734375 18.0625 -15.164062 19.347656 -14.023438 C 19.917969 -13.5 20.390625 -12.882812 20.773438 -12.167969 C 21.152344 -11.40625 21.34375 -10.601562 21.34375 -9.648438 Z M 21.34375 -9.648438 "/></g></g></g><g fill="#333333" fill-opacity="1"><g transform="translate(228.417292, 282.333484)"><g><path d="M 8.792969 -11.882812 L 14.6875 -26.761719 L 20.535156 -11.882812 Z M 28.851562 0 L 14.6875 -34.558594 L 0.476562 0 L 4.089844 0 L 7.558594 -8.792969 L 21.769531 -8.792969 L 25.242188 0 Z M 28.851562 0 "/></g></g></g><g fill="#333333" fill-opacity="1"><g transform="translate(267.251697, 282.333484)"><g><path d="M 6.890625 -23.816406 L 25.050781 1.996094 L 25.050781 -32.324219 L 21.722656 -32.324219 L 21.722656 -8.554688 L 3.566406 -34.367188 L 3.566406 0 L 6.890625 0 Z M 6.890625 -23.816406 "/></g></g></g><g fill="#333333" fill-opacity="1"><g transform="translate(305.373159, 282.333484)"><g><path d="M 22.769531 0 L 22.769531 -3.089844 L 6.890625 -3.089844 L 6.890625 -14.59375 L 22.292969 -14.59375 L 22.292969 -17.730469 L 6.890625 -17.730469 L 6.890625 -29.234375 L 22.769531 -29.234375 L 22.769531 -32.324219 L 3.566406 -32.324219 L 3.566406 0 Z M 22.769531 0 "/></g></g></g><path fill="#cad0d9" d="M 188.890625 220.476562 L 102.039062 220.476562 C 100.027344 220.476562 98.398438 218.5625 98.398438 216.199219 L 98.398438 77.464844 C 98.398438 75.101562 100.027344 73.183594 102.039062 73.183594 L 188.890625 73.183594 C 190.902344 73.183594 192.53125 75.101562 192.53125 77.464844 L 192.53125 216.199219 C 192.53125 218.5625 190.902344 220.476562 188.890625 220.476562 Z M 188.890625 220.476562 " fill-opacity="1" fill-rule="nonzero"/><g clip-path="url(#6ebb01593e)"><path fill="#333333" d="M 349.601562 222.070312 L 218.613281 222.070312 C 217.128906 222.070312 215.925781 220.867188 215.925781 219.382812 L 215.925781 200.84375 L 148.195312 200.84375 C 146.710938 200.84375 145.511719 199.640625 145.511719 198.15625 L 145.511719 119.902344 L 72.765625 154.546875 L 72.765625 218.589844 C 72.765625 220.074219 71.5625 221.277344 70.082031 221.277344 L 25.695312 221.277344 C 24.214844 221.277344 23.011719 220.074219 23.011719 218.589844 C 23.011719 217.105469 24.214844 215.902344 25.695312 215.902344 L 67.394531 215.902344 L 67.394531 152.851562 C 67.394531 151.8125 67.992188 150.867188 68.925781 150.421875 L 145.511719 113.949219 L 145.511719 22.261719 C 145.511719 20.777344 146.710938 19.574219 148.195312 19.574219 L 217.433594 19.574219 C 218.917969 19.574219 220.121094 20.777344 220.121094 22.261719 L 220.121094 82.671875 C 220.121094 83.707031 219.523438 84.652344 218.589844 85.097656 L 150.882812 117.34375 L 150.882812 195.46875 L 215.925781 195.46875 L 215.925781 97.609375 C 215.925781 96.632812 216.457031 95.734375 217.308594 95.257812 C 218.164062 94.785156 219.207031 94.8125 220.035156 95.328125 L 287.207031 137.242188 C 287.996094 137.734375 288.472656 138.597656 288.472656 139.523438 L 288.472656 198.15625 C 288.472656 199.640625 287.269531 200.84375 285.785156 200.84375 L 221.300781 200.84375 L 221.300781 216.691406 L 349.601562 216.691406 C 351.085938 216.691406 352.289062 217.894531 352.289062 219.382812 C 352.289062 220.867188 351.085938 222.070312 349.601562 222.070312 Z M 221.300781 195.46875 L 283.101562 195.46875 L 283.101562 141.015625 L 221.300781 102.453125 Z M 150.882812 24.949219 L 150.882812 111.390625 L 214.75 80.972656 L 214.75 24.949219 Z M 150.882812 24.949219 " fill-opacity="1" fill-rule="nonzero"/></g><g fill="#333333" fill-opacity="1"><g transform="translate(85.803372, 314.00016)"><g><path d="M 2.980469 -10.300781 L 10.835938 0.863281 L 10.835938 -13.980469 L 9.394531 -13.980469 L 9.394531 -3.699219 L 1.542969 -14.863281 L 1.542969 0 L 2.980469 0 Z M 2.980469 -10.300781 "/></g></g></g><g fill="#333333" fill-opacity="1"><g transform="translate(102.29202, 314.00016)"><g><path d="M 2.980469 0 L 2.980469 -13.980469 L 1.542969 -13.980469 L 1.542969 0 Z M 2.980469 0 "/></g></g></g><g fill="#333333" fill-opacity="1"><g transform="translate(110.92698, 314.00016)"><g><path d="M 9.847656 0 L 9.847656 -1.335938 L 2.980469 -1.335938 L 2.980469 -6.3125 L 9.640625 -6.3125 L 9.640625 -7.667969 L 2.980469 -7.667969 L 2.980469 -12.644531 L 9.847656 -12.644531 L 9.847656 -13.980469 L 1.542969 -13.980469 L 1.542969 0 Z M 9.847656 0 "/></g></g></g><g fill="#333333" fill-opacity="1"><g transform="translate(126.428771, 314.00016)"><g><path d="M 2.980469 -6.90625 L 2.980469 -12.601562 L 6.230469 -12.601562 C 7.074219 -12.601562 7.75 -12.335938 8.265625 -11.800781 C 8.757812 -11.265625 9.027344 -10.609375 9.027344 -9.785156 C 9.027344 -8.964844 8.757812 -8.285156 8.222656 -7.730469 C 7.6875 -7.175781 7.03125 -6.90625 6.230469 -6.90625 Z M 10.464844 -9.765625 C 10.464844 -10.957031 10.011719 -11.984375 9.148438 -12.789062 C 8.304688 -13.570312 7.257812 -13.980469 6.023438 -13.980469 L 1.542969 -13.980469 L 1.542969 0 L 2.980469 0 L 2.980469 -5.53125 L 4.644531 -5.53125 L 8.757812 0 L 10.691406 0 L 6.375 -5.53125 C 7.464844 -5.59375 8.386719 -5.984375 9.148438 -6.703125 C 10.011719 -7.503906 10.464844 -8.53125 10.464844 -9.765625 Z M 10.464844 -9.765625 "/></g></g></g><g fill="#333333" fill-opacity="1"><g transform="translate(141.724971, 314.00016)"><g><path d="M 11.65625 -4.625 L 11.65625 -13.980469 L 10.21875 -13.980469 L 10.21875 -4.421875 C 10.21875 -3.84375 10.113281 -3.371094 9.910156 -2.980469 C 9.3125 -1.828125 8.160156 -1.253906 6.457031 -1.253906 C 5.34375 -1.253906 4.460938 -1.5 3.804688 -1.996094 C 3.042969 -2.550781 2.671875 -3.351562 2.671875 -4.421875 L 2.671875 -13.980469 L 1.234375 -13.980469 L 1.234375 -4.625 C 1.234375 -3.105469 1.726562 -1.910156 2.714844 -1.046875 C 3.640625 -0.226562 4.894531 0.183594 6.457031 0.183594 C 7.996094 0.183594 9.230469 -0.226562 10.175781 -1.046875 C 11.164062 -1.910156 11.65625 -3.105469 11.65625 -4.625 Z M 11.65625 -4.625 "/></g></g></g><g fill="#333333" fill-opacity="1"><g transform="translate(158.727601, 314.00016)"><g><path d="M 14.371094 -4.277344 L 12.789062 -4.277344 C 12.292969 -3.371094 11.617188 -2.632812 10.753906 -2.097656 C 9.890625 -1.542969 8.921875 -1.273438 7.894531 -1.273438 C 6.351562 -1.273438 5.035156 -1.828125 3.949219 -2.980469 C 2.878906 -4.070312 2.363281 -5.40625 2.363281 -6.96875 C 2.363281 -8.53125 2.878906 -9.867188 3.949219 -10.980469 C 4.441406 -11.492188 5.035156 -11.902344 5.714844 -12.210938 C 6.375 -12.519531 7.03125 -12.683594 7.6875 -12.683594 C 8.328125 -12.683594 8.882812 -12.601562 9.375 -12.460938 C 10.875 -12.007812 12.007812 -11.101562 12.765625 -9.722656 L 14.351562 -9.722656 C 13.816406 -11.039062 12.972656 -12.109375 11.800781 -12.933594 C 10.609375 -13.753906 9.3125 -14.164062 7.894531 -14.164062 C 5.941406 -14.164062 4.296875 -13.445312 2.941406 -12.027344 C 2.300781 -11.371094 1.808594 -10.589844 1.460938 -9.722656 C 1.089844 -8.859375 0.925781 -7.9375 0.925781 -6.96875 C 0.925781 -4.996094 1.582031 -3.332031 2.941406 -1.933594 C 4.296875 -0.492188 5.941406 0.207031 7.894531 0.207031 C 9.3125 0.207031 10.609375 -0.207031 11.820312 -1.027344 C 12.992188 -1.851562 13.835938 -2.917969 14.371094 -4.277344 Z M 14.371094 -4.277344 "/></g></g></g><g fill="#333333" fill-opacity="1"><g transform="translate(177.827282, 314.00016)"><g><path d="M 2.980469 0 L 2.980469 -6.25 L 9.332031 -6.25 L 9.332031 0 L 10.773438 0 L 10.773438 -13.980469 L 9.332031 -13.980469 L 9.332031 -7.6875 L 2.980469 -7.6875 L 2.980469 -13.980469 L 1.542969 -13.980469 L 1.542969 0 Z M 2.980469 0 "/></g></g></g><g fill="#333333" fill-opacity="1"><g transform="translate(194.254259, 314.00016)"><g><path d="M 13.855469 -7.03125 C 13.855469 -5.425781 13.28125 -4.070312 12.171875 -2.960938 C 11.039062 -1.828125 9.683594 -1.273438 8.101562 -1.273438 C 6.515625 -1.273438 5.160156 -1.828125 4.050781 -2.960938 C 2.917969 -4.070312 2.363281 -5.425781 2.363281 -7.03125 C 2.363281 -8.59375 2.917969 -9.949219 4.050781 -11.082031 C 5.160156 -12.191406 6.515625 -12.765625 8.101562 -12.765625 C 9.683594 -12.765625 11.039062 -12.191406 12.171875 -11.082031 C 13.28125 -9.949219 13.855469 -8.59375 13.855469 -7.03125 Z M 15.296875 -7.03125 C 15.296875 -8.019531 15.089844 -8.941406 14.71875 -9.828125 C 14.351562 -10.691406 13.835938 -11.453125 13.179688 -12.109375 C 12.519531 -12.746094 11.761719 -13.261719 10.894531 -13.632812 C 10.011719 -14 9.085938 -14.207031 8.101562 -14.207031 C 7.113281 -14.207031 6.167969 -14 5.304688 -13.632812 C 4.441406 -13.261719 3.679688 -12.746094 3.023438 -12.109375 C 2.363281 -11.453125 1.851562 -10.691406 1.480469 -9.828125 C 1.109375 -8.941406 0.925781 -8.019531 0.925781 -7.03125 C 0.925781 -6.042969 1.109375 -5.097656 1.480469 -4.234375 C 1.851562 -3.351562 2.363281 -2.589844 3.023438 -1.933594 C 3.679688 -1.273438 4.441406 -0.761719 5.304688 -0.390625 C 6.167969 -0.0195312 7.113281 0.164062 8.101562 0.164062 C 9.085938 0.164062 10.011719 -0.0195312 10.894531 -0.390625 C 11.761719 -0.761719 12.519531 -1.273438 13.179688 -1.933594 C 13.835938 -2.589844 14.351562 -3.351562 14.71875 -4.234375 C 15.089844 -5.097656 15.296875 -6.042969 15.296875 -7.03125 Z M 15.296875 -7.03125 "/></g></g></g><g fill="#333333" fill-opacity="1"><g transform="translate(214.587509, 314.00016)"><g><path d="M 14.433594 0 L 15.890625 0 L 12.644531 -14.90625 L 8.058594 -2.941406 L 3.472656 -14.90625 L 0.207031 0 L 1.6875 0 L 3.84375 -9.949219 L 8.058594 0.824219 L 12.253906 -9.949219 Z M 14.433594 0 "/></g></g></g><g fill="#333333" fill-opacity="1"><g transform="translate(234.7974, 314.00016)"><g><path d="M 13.855469 -7.03125 C 13.855469 -5.425781 13.28125 -4.070312 12.171875 -2.960938 C 11.039062 -1.828125 9.683594 -1.273438 8.101562 -1.273438 C 6.515625 -1.273438 5.160156 -1.828125 4.050781 -2.960938 C 2.917969 -4.070312 2.363281 -5.425781 2.363281 -7.03125 C 2.363281 -8.59375 2.917969 -9.949219 4.050781 -11.082031 C 5.160156 -12.191406 6.515625 -12.765625 8.101562 -12.765625 C 9.683594 -12.765625 11.039062 -12.191406 12.171875 -11.082031 C 13.28125 -9.949219 13.855469 -8.59375 13.855469 -7.03125 Z M 15.296875 -7.03125 C 15.296875 -8.019531 15.089844 -8.941406 14.71875 -9.828125 C 14.351562 -10.691406 13.835938 -11.453125 13.179688 -12.109375 C 12.519531 -12.746094 11.761719 -13.261719 10.894531 -13.632812 C 10.011719 -14 9.085938 -14.207031 8.101562 -14.207031 C 7.113281 -14.207031 6.167969 -14 5.304688 -13.632812 C 4.441406 -13.261719 3.679688 -12.746094 3.023438 -12.109375 C 2.363281 -11.453125 1.851562 -10.691406 1.480469 -9.828125 C 1.109375 -8.941406 0.925781 -8.019531 0.925781 -7.03125 C 0.925781 -6.042969 1.109375 -5.097656 1.480469 -4.234375 C 1.851562 -3.351562 2.363281 -2.589844 3.023438 -1.933594 C 3.679688 -1.273438 4.441406 -0.761719 5.304688 -0.390625 C 6.167969 -0.0195312 7.113281 0.164062 8.101562 0.164062 C 9.085938 0.164062 10.011719 -0.0195312 10.894531 -0.390625 C 11.761719 -0.761719 12.519531 -1.273438 13.179688 -1.933594 C 13.835938 -2.589844 14.351562 -3.351562 14.71875 -4.234375 C 15.089844 -5.097656 15.296875 -6.042969 15.296875 -7.03125 Z M 15.296875 -7.03125 "/></g></g></g><g fill="#333333" fill-opacity="1"><g transform="translate(255.130642, 314.00016)"><g><path d="M 10.328125 -3.921875 C 10.328125 -2.617188 9.851562 -1.601562 8.90625 -0.875 C 7.957031 -0.15625 6.679688 0.203125 5.078125 0.203125 C 4.253906 0.203125 3.492188 0.140625 2.796875 0.015625 C 2.097656 -0.109375 1.515625 -0.28125 1.046875 -0.5 L 1.046875 -2.265625 C 1.535156 -2.046875 2.144531 -1.84375 2.875 -1.65625 C 3.613281 -1.476562 4.375 -1.390625 5.15625 -1.390625 C 6.238281 -1.390625 7.0625 -1.601562 7.625 -2.03125 C 8.1875 -2.457031 8.46875 -3.035156 8.46875 -3.765625 C 8.46875 -4.242188 8.363281 -4.644531 8.15625 -4.96875 C 7.957031 -5.300781 7.601562 -5.601562 7.09375 -5.875 C 6.582031 -6.15625 5.890625 -6.457031 5.015625 -6.78125 C 3.753906 -7.238281 2.804688 -7.796875 2.171875 -8.453125 C 1.546875 -9.109375 1.234375 -10.003906 1.234375 -11.140625 C 1.234375 -11.910156 1.429688 -12.578125 1.828125 -13.140625 C 2.222656 -13.703125 2.769531 -14.132812 3.46875 -14.4375 C 4.175781 -14.738281 4.992188 -14.890625 5.921875 -14.890625 C 6.710938 -14.890625 7.441406 -14.8125 8.109375 -14.65625 C 8.785156 -14.507812 9.40625 -14.3125 9.96875 -14.0625 L 9.390625 -12.484375 C 8.890625 -12.703125 8.335938 -12.882812 7.734375 -13.03125 C 7.128906 -13.1875 6.507812 -13.265625 5.875 -13.265625 C 4.957031 -13.265625 4.265625 -13.066406 3.796875 -12.671875 C 3.335938 -12.285156 3.109375 -11.769531 3.109375 -11.125 C 3.109375 -10.632812 3.207031 -10.222656 3.40625 -9.890625 C 3.613281 -9.554688 3.953125 -9.253906 4.421875 -8.984375 C 4.890625 -8.722656 5.519531 -8.445312 6.3125 -8.15625 C 7.175781 -7.84375 7.90625 -7.503906 8.5 -7.140625 C 9.09375 -6.773438 9.546875 -6.335938 9.859375 -5.828125 C 10.171875 -5.328125 10.328125 -4.691406 10.328125 -3.921875 Z M 8.75 -19.40625 L 8.75 -19.203125 C 8.570312 -18.953125 8.316406 -18.628906 7.984375 -18.234375 C 7.648438 -17.847656 7.285156 -17.457031 6.890625 -17.0625 C 6.503906 -16.675781 6.144531 -16.359375 5.8125 -16.109375 L 4.625 -16.109375 L 4.625 -16.359375 C 4.8125 -16.609375 5.023438 -16.914062 5.265625 -17.28125 C 5.515625 -17.644531 5.753906 -18.015625 5.984375 -18.390625 C 6.222656 -18.765625 6.421875 -19.101562 6.578125 -19.40625 Z M 8.75 -19.40625 "/></g></g></g><g fill="#333333" fill-opacity="1"><g transform="translate(270.529642, 314.00016)"><g><path d="M 14.371094 -4.277344 L 12.789062 -4.277344 C 12.292969 -3.371094 11.617188 -2.632812 10.753906 -2.097656 C 9.890625 -1.542969 8.921875 -1.273438 7.894531 -1.273438 C 6.351562 -1.273438 5.035156 -1.828125 3.949219 -2.980469 C 2.878906 -4.070312 2.363281 -5.40625 2.363281 -6.96875 C 2.363281 -8.53125 2.878906 -9.867188 3.949219 -10.980469 C 4.441406 -11.492188 5.035156 -11.902344 5.714844 -12.210938 C 6.375 -12.519531 7.03125 -12.683594 7.6875 -12.683594 C 8.328125 -12.683594 8.882812 -12.601562 9.375 -12.460938 C 10.875 -12.007812 12.007812 -11.101562 12.765625 -9.722656 L 14.351562 -9.722656 C 13.816406 -11.039062 12.972656 -12.109375 11.800781 -12.933594 C 10.609375 -13.753906 9.3125 -14.164062 7.894531 -14.164062 C 5.941406 -14.164062 4.296875 -13.445312 2.941406 -12.027344 C 2.300781 -11.371094 1.808594 -10.589844 1.460938 -9.722656 C 1.089844 -8.859375 0.925781 -7.9375 0.925781 -6.96875 C 0.925781 -4.996094 1.582031 -3.332031 2.941406 -1.933594 C 4.296875 -0.492188 5.941406 0.207031 7.894531 0.207031 C 9.3125 0.207031 10.609375 -0.207031 11.820312 -1.027344 C 12.992188 -1.851562 13.835938 -2.917969 14.371094 -4.277344 Z M 14.371094 -4.277344 "/></g></g></g><g fill="#333333" fill-opacity="1"><g transform="translate(289.629324, 314.00016)"><g><path d="M 2.980469 0 L 2.980469 -13.980469 L 1.542969 -13.980469 L 1.542969 0 Z M 2.980469 0 "/></g></g></g></svg>